TITLE ""
FILE "P1Q_t_1249-1258.mp3" MP3
  TRACK 01 AUDIO
    TITLE "P1Q_t_1249-1258_01"
    INDEX 01 00:00:00
  TRACK 02 AUDIO
    TITLE "P1Q_t_1249-1258_02"
    INDEX 01 00:00:14
  TRACK 03 AUDIO
    TITLE "P1Q_t_1249-1258_03"
    INDEX 01 00:01:23
  TRACK 04 AUDIO
    TITLE "P1Q_t_1249-1258_04"
    INDEX 01 00:01:43
  TRACK 05 AUDIO
    TITLE "P1Q_t_1249-1258_05"
    INDEX 01 00:03:75
  TRACK 06 AUDIO
    TITLE "P1Q_t_1249-1258_06"
    INDEX 01 00:04:20
  TRACK 07 AUDIO
    TITLE "P1Q_t_1249-1258_07"
    INDEX 01 00:08:73
  TRACK 08 AUDIO
    TITLE "P1Q_t_1249-1258_08"
    INDEX 01 00:09:41
  TRACK 09 AUDIO
    TITLE "P1Q_t_1249-1258_09"
    INDEX 01 00:10:67
  TRACK 10 AUDIO
    TITLE "P1Q_t_1249-1258_10"
    INDEX 01 00:11:12
  TRACK 11 AUDIO
    TITLE "P1Q_t_1249-1258_11"
    INDEX 01 00:12:62
  TRACK 12 AUDIO
    TITLE "P1Q_t_1249-1258_12"
    INDEX 01 00:13:05
  TRACK 13 AUDIO
    TITLE "P1Q_t_1249-1258_13"
    INDEX 01 00:17:26
  TRACK 14 AUDIO
    TITLE "P1Q_t_1249-1258_14"
    INDEX 01 00:17:73
  TRACK 15 AUDIO
    TITLE "P1Q_t_1249-1258_15"
    INDEX 01 00:19:39
  TRACK 16 AUDIO
    TITLE "P1Q_t_1249-1258_16"
    INDEX 01 00:19:61
  TRACK 17 AUDIO
    TITLE "P1Q_t_1249-1258_17"
    INDEX 01 00:21:69
  TRACK 18 AUDIO
    TITLE "P1Q_t_1249-1258_18"
    INDEX 01 00:22:12
  TRACK 19 AUDIO
    TITLE "P1Q_t_1249-1258_19"
    INDEX 01 00:27:64
  TRACK 20 AUDIO
    TITLE "P1Q_t_1249-1258_20"
    INDEX 01 00:28:34
  TRACK 21 AUDIO
    TITLE "P1Q_t_1249-1258_21"
    INDEX 01 00:29:39
  TRACK 22 AUDIO
    TITLE "P1Q_t_1249-1258_22"
    INDEX 01 00:29:61
  TRACK 23 AUDIO
    TITLE "P1Q_t_1249-1258_23"
    INDEX 01 00:34:17
  TRACK 24 AUDIO
    TITLE "P1Q_t_1249-1258_24"
    INDEX 01 00:34:46
  TRACK 25 AUDIO
    TITLE "P1Q_t_1249-1258_25"
    INDEX 01 00:37:45
  TRACK 26 AUDIO
    TITLE "P1Q_t_1249-1258_26"
    INDEX 01 00:38:17
  TRACK 27 AUDIO
    TITLE "P1Q_t_1249-1258_27"
    INDEX 01 00:39:38
  TRACK 28 AUDIO
    TITLE "P1Q_t_1249-1258_28"
    INDEX 01 00:39:57
  TRACK 29 AUDIO
    TITLE "P1Q_t_1249-1258_29"
    INDEX 01 00:42:13
  TRACK 30 AUDIO
    TITLE "P1Q_t_1249-1258_30"
    INDEX 01 00:42:34
  TRACK 31 AUDIO
    TITLE "P1Q_t_1249-1258_31"
    INDEX 01 00:47:45
  TRACK 32 AUDIO
    TITLE "P1Q_t_1249-1258_32"
    INDEX 01 00:48:17
  TRACK 33 AUDIO
    TITLE "P1Q_t_1249-1258_33"
    INDEX 01 00:49:48
  TRACK 34 AUDIO
    TITLE "P1Q_t_1249-1258_34"
    INDEX 01 00:49:70
  TRACK 35 AUDIO
    TITLE "P1Q_t_1249-1258_35"
    INDEX 01 00:52:05
  TRACK 36 AUDIO
    TITLE "P1Q_t_1249-1258_36"
    INDEX 01 00:52:23
  TRACK 37 AUDIO
    TITLE "P1Q_t_1249-1258_37"
    INDEX 01 00:57:55
  TRACK 38 AUDIO
    TITLE "P1Q_t_1249-1258_38"
    INDEX 01 00:58:25
  TRACK 39 AUDIO
    TITLE "P1Q_t_1249-1258_39"
    INDEX 01 00:59:35
  TRACK 40 AUDIO
    TITLE "P1Q_t_1249-1258_40"
    INDEX 01 00:59:54
  TRACK 41 AUDIO
    TITLE "P1Q_t_1249-1258_41"
    INDEX 01 01:01:12
  TRACK 42 AUDIO
    TITLE "P1Q_t_1249-1258_42"
    INDEX 01 01:01:33
  TRACK 43 AUDIO
    TITLE "P1Q_t_1249-1258_43"
    INDEX 01 01:06:74
  TRACK 44 AUDIO
    TITLE "P1Q_t_1249-1258_44"
    INDEX 01 01:07:44
  TRACK 45 AUDIO
    TITLE "P1Q_t_1249-1258_45"
    INDEX 01 01:08:73
  TRACK 46 AUDIO
    TITLE "P1Q_t_1249-1258_46"
    INDEX 01 01:09:19
  TRACK 47 AUDIO
    TITLE "P1Q_t_1249-1258_47"
    INDEX 01 01:12:14
  TRACK 48 AUDIO
    TITLE "P1Q_t_1249-1258_48"
    INDEX 01 01:12:33
  TRACK 49 AUDIO
    TITLE "P1Q_t_1249-1258_49"
    INDEX 01 01:17:15
  TRACK 50 AUDIO
    TITLE "P1Q_t_1249-1258_50"
    INDEX 01 01:17:62
  TRACK 51 AUDIO
    TITLE "P1Q_t_1249-1258_51"
    INDEX 01 01:18:73
  TRACK 52 AUDIO
    TITLE "P1Q_t_1249-1258_52"
    INDEX 01 01:19:18
  TRACK 53 AUDIO
    TITLE "P1Q_t_1249-1258_53"
    INDEX 01 01:20:19
  TRACK 54 AUDIO
    TITLE "P1Q_t_1249-1258_54"
    INDEX 01 01:20:41
  TRACK 55 AUDIO
    TITLE "P1Q_t_1249-1258_55"
    INDEX 01 01:24:42
  TRACK 56 AUDIO
    TITLE "P1Q_t_1249-1258_56"
    INDEX 01 01:25:12
  TRACK 57 AUDIO
    TITLE "P1Q_t_1249-1258_57"
    INDEX 01 01:26:41
  TRACK 58 AUDIO
    TITLE "P1Q_t_1249-1258_58"
    INDEX 01 01:26:61
  TRACK 59 AUDIO
    TITLE "P1Q_t_1249-1258_59"
    INDEX 01 01:29:04
  TRACK 60 AUDIO
    TITLE "P1Q_t_1249-1258_60"
    INDEX 01 01:29:24
  TRACK 61 AUDIO
    TITLE "P1Q_t_1249-1258_61"
    INDEX 01 01:33:35
